<svg xmlns="http://www.w3.org/2000/svg" width="20" height="16.01" viewBox="0 0 20 16.01">
  <path id="auto_parts" d="M640,265.361l2.99-7.981a1,1,0,0,0-.924-1.346H627.486l-.468-2.247a1,1,0,0,0-.973-.794h-1.994a1,1,0,0,0,0,2h1.2l2.823,13.221a1.008,1.008,0,0,0,.984.793H639.52a1,1,0,0,0,0-1.995h-9.608l-.216-1h9.38A1,1,0,0,0,640,265.361Zm-4.088-4.178a1.581,1.581,0,0,1-.015.207l.449.352a.107.107,0,0,1,.025.137l-.425.737a.106.106,0,0,1-.13.046l-.529-.214a1.576,1.576,0,0,1-.36.209l-.079.564a.108.108,0,0,1-.106.09h-.85a.107.107,0,0,1-.1-.09l-.08-.564a1.611,1.611,0,0,1-.36-.209l-.529.214a.106.106,0,0,1-.13-.046l-.425-.737a.106.106,0,0,1,.026-.137l.448-.352a1.447,1.447,0,0,1,0-.415l-.448-.352a.105.105,0,0,1-.026-.136l.425-.737a.107.107,0,0,1,.13-.046l.529.214a1.577,1.577,0,0,1,.36-.21l.08-.564a.107.107,0,0,1,.1-.089h.85a.109.109,0,0,1,.107.089l.08.564a1.63,1.63,0,0,1,.359.21l.529-.214a.105.105,0,0,1,.13.046l.425.737a.106.106,0,0,1-.025.136l-.45.352A1.6,1.6,0,0,1,635.913,261.183Z" transform="translate(-623.054 -252.993)" fill="#443df6"/>
</svg>
