<svg xmlns="http://www.w3.org/2000/svg" width="20" height="20" viewBox="0 0 20 20">
  <g id="Interior" transform="translate(82 -42.89)">
    <g id="Path_1580" data-name="Path 1580" fill="none" stroke-miterlimit="10">
      <path d="M-62.786,49a9.943,9.943,0,0,0-2.142-3.18,9.975,9.975,0,0,0-3.179-2.142A9.937,9.937,0,0,0-72,42.89a9.937,9.937,0,0,0-3.893.786,9.934,9.934,0,0,0-3.179,2.14A9.977,9.977,0,0,0-81.214,49,9.94,9.94,0,0,0-82,52.889a9.939,9.939,0,0,0,.786,3.893,9.941,9.941,0,0,0,2.142,3.18A9.978,9.978,0,0,0-75.893,62.1,9.939,9.939,0,0,0-72,62.89a9.974,9.974,0,0,0,3.893-.784,9.94,9.94,0,0,0,3.179-2.142,9.975,9.975,0,0,0,2.142-3.179A9.94,9.94,0,0,0-62,52.891,9.94,9.94,0,0,0-62.786,49Z" stroke="none"/>
      <path d="M -72.00003814697266 43.88999938964844 C -73.21591949462891 43.88999938964844 -74.3946533203125 44.12783813476562 -75.50372314453125 44.59701919555664 C -76.58228302001953 45.05297088623047 -77.54472351074219 45.70071029663086 -78.36428833007812 46.52220916748047 C -79.19342041015625 47.35338973999023 -79.84224700927734 48.31628036499023 -80.29310607910156 49.38491058349609 C -80.76216888427734 50.4940185546875 -81 51.67295837402344 -81 52.88898849487305 C -81 54.10501861572266 -80.76216888427734 55.28390121459961 -80.29278564453125 56.39371871948242 C -79.84073638916016 57.46514129638672 -79.19219207763672 58.42776870727539 -78.36595916748047 59.25405883789062 C -77.53495788574219 60.08319091796875 -76.57212829589844 60.73215103149414 -75.50357055664062 61.18317794799805 C -74.39463043212891 61.65219116210938 -73.21587371826172 61.88999938964844 -72.00003814697266 61.88999938964844 C -70.78530120849609 61.88999938964844 -69.6060791015625 61.6526985168457 -68.49569702148438 61.18492889404297 C -67.42453765869141 60.7328987121582 -66.46205902099609 60.08424758911133 -65.63571166992188 59.25774002075195 C -64.80663299560547 58.4267692565918 -64.15778350830078 57.46389770507812 -63.70684814453125 56.39508056640625 C -63.23782348632812 55.28606796264648 -63 54.10715103149414 -63 52.89104843139648 C -63 51.67499923706055 -63.23782348632812 50.49608993530273 -63.70717620849609 49.38628005981445 C -64.15911865234375 48.31510925292969 -64.80770874023438 47.35247039794922 -65.63414764404297 46.52589797973633 C -66.46499633789062 45.69683074951172 -67.42775726318359 45.04793930053711 -68.49651336669922 44.59692001342773 C -69.60533905029297 44.12783813476562 -70.78410339355469 43.88999938964844 -72.00003814697266 43.88999938964844 M -72.00003814697266 42.88999938964844 C -70.65019989013672 42.88999938964844 -69.34049987792969 43.15407943725586 -68.10690307617188 43.67593765258789 C -66.91549682617188 44.17871856689453 -65.84660339355469 44.90119934082031 -64.92780303955078 45.81803894042969 C -64.00892639160156 46.7370491027832 -63.28854370117188 47.8060302734375 -62.78582763671875 48.99755859375 C -62.26405334472656 50.23130035400391 -62 51.54116821289062 -62 52.89104843139648 C -62 54.24102020263672 -62.26405334472656 55.55086898803711 -62.78582763671875 56.78459930419922 C -63.28854370117188 57.97613906860352 -64.010986328125 59.04513931274414 -64.92780303955078 59.96403884887695 C -65.84660339355469 60.88302993774414 -66.91549682617188 61.60348129272461 -68.10690307617188 62.10625076293945 C -69.34049987792969 62.62593078613281 -70.65019989013672 62.88999938964844 -72.00003814697266 62.88999938964844 C -73.34976959228516 62.88999938964844 -74.65949249267578 62.62593078613281 -75.89309692382812 62.10419082641602 C -77.08450317382812 61.60131072998047 -78.15335845947266 60.87879943847656 -79.07227325439453 59.96195983886719 C -79.99118804931641 59.0429801940918 -80.71141815185547 57.97396850585938 -81.21412658691406 56.78244018554688 C -81.73593902587891 55.54869842529297 -82 54.23896789550781 -82 52.88898849487305 C -82 51.53900909423828 -81.73593902587891 50.22924041748047 -81.21412658691406 48.99539947509766 C -80.71141815185547 47.80385971069336 -79.989013671875 46.73498916625977 -79.07227325439453 45.81597900390625 C -78.15543365478516 44.89696884155273 -77.08244323730469 44.17871856689453 -75.89309692382812 43.67593765258789 C -74.65949249267578 43.15407943725586 -73.34976959228516 42.88999938964844 -72.00003814697266 42.88999938964844 Z" stroke="none" fill="#006dea"/>
    </g>
    <g id="Path_1582" data-name="Path 1582" transform="translate(-288.111 -288.03)" fill="none" stroke-miterlimit="10">
      <path d="M218.3,340.921a2.189,2.189,0,1,0-2.189,2.187,2.193,2.193,0,0,0,2.189-2.187Z" stroke="none"/>
      <path d="M 216.1111602783203 342.1084594726562 C 216.7669219970703 342.1084594726562 217.3004150390625 341.5758972167969 217.3004150390625 340.9212951660156 C 217.3004150390625 340.2644348144531 216.7669219970703 339.7300109863281 216.1111602783203 339.7300109863281 C 215.4554443359375 339.7300109863281 214.9219970703125 340.2634887695312 214.9219970703125 340.9192504882812 C 214.9219970703125 341.5749816894531 215.4554443359375 342.1084594726562 216.1111602783203 342.1084594726562 M 216.1111602783203 343.1084594726562 C 214.9055328369141 343.1084594726562 213.9219970703125 342.1269836425781 213.9219970703125 340.9192504882812 C 213.9219970703125 339.7114868164062 214.9033966064453 338.7300109863281 216.1111602783203 338.7300109863281 C 217.3188934326172 338.7300109863281 218.3004150390625 339.7135314941406 218.3004150390625 340.9212951660156 C 218.3004150390625 342.1290588378906 217.3168487548828 343.1084594726562 216.1111602783203 343.1084594726562 Z" stroke="none" fill="#006dea"/>
    </g>
    <g id="Path_1583" data-name="Path 1583" transform="translate(-405.259 -405.101)" fill="none" stroke-miterlimit="10">
      <path d="M339.118,458.968h-2.509a.478.478,0,0,0-.438.286,3.189,3.189,0,0,1-1.648,1.648.478.478,0,0,0-.286.438v2.5a1.465,1.465,0,0,0,.651,1.218,1.422,1.422,0,0,0,1.339.135,7.839,7.839,0,0,0,2.545-1.7,7.748,7.748,0,0,0,1.7-2.542,1.423,1.423,0,0,0-.137-1.335,1.459,1.459,0,0,0-1.218-.654Z" stroke="none"/>
      <path d="M 336.9346313476562 459.9679870605469 C 336.54638671875 460.6875915527344 335.9583435058594 461.2755126953125 335.2380065917969 461.6644592285156 L 335.2380065917969 463.8435668945312 C 335.2380065917969 463.9991455078125 335.3154907226562 464.1438293457031 335.4442443847656 464.2298889160156 C 335.5181579589844 464.2791748046875 335.6021118164062 464.3052368164062 335.6869506835938 464.3052368164062 C 335.7398071289062 464.3052368164062 335.7931823730469 464.2942504882812 335.8500061035156 464.2716674804688 C 336.682373046875 463.9258422851562 337.4282531738281 463.4276123046875 338.0669860839844 462.7906799316406 C 338.7075805664062 462.1519165039062 339.2062377929688 461.406494140625 339.548583984375 460.5764465332031 C 339.6017761230469 460.4468688964844 339.585693359375 460.298095703125 339.5034484863281 460.1754150390625 C 339.4158020019531 460.0435791015625 339.2752380371094 459.9679870605469 339.1178283691406 459.9679870605469 L 336.9346313476562 459.9679870605469 M 336.6092529296875 458.9679870605469 L 339.1178283691406 458.9679870605469 C 339.6085205078125 458.9679870605469 340.0632629394531 459.2113037109375 340.3361511230469 459.6216735839844 C 340.6026916503906 460.019287109375 340.6534423828125 460.5184631347656 340.4736022949219 460.9563598632812 C 340.0802001953125 461.9102478027344 339.5070190429688 462.7669677734375 338.7730712890625 463.4988098144531 C 338.0390625 464.230712890625 337.1824340820312 464.8017578125 336.2284240722656 465.1973266601562 C 335.7782592773438 465.3795166015625 335.2878723144531 465.3275756835938 334.8894958496094 465.0619201660156 C 334.4813232421875 464.7890319824219 334.2380065917969 464.3322143554688 334.2380065917969 463.8435668945312 L 334.2380065917969 461.3392333984375 C 334.2380065917969 461.1487731933594 334.3501586914062 460.9774475097656 334.5235595703125 460.9013061523438 C 335.2618103027344 460.5777282714844 335.8477478027344 459.9938659667969 336.1712951660156 459.2535400390625 C 336.2474365234375 459.0801391601562 336.4187927246094 458.9679870605469 336.6092529296875 458.9679870605469 Z" stroke="none" fill="#006dea"/>
    </g>
    <g id="Path_1584" data-name="Path 1584" transform="translate(-98.792 -405.181)" fill="none" stroke-miterlimit="10">
      <path d="M25.532,460.983a3.19,3.19,0,0,1-1.648-1.648.477.477,0,0,0-.438-.286H20.938a1.467,1.467,0,0,0-1.218.654,1.418,1.418,0,0,0-.137,1.335,7.841,7.841,0,0,0,4.245,4.241,1.433,1.433,0,0,0,1.339-.138,1.465,1.465,0,0,0,.651-1.218v-2.5a.477.477,0,0,0-.286-.438Z" stroke="none"/>
      <path d="M 20.9378662109375 460.0499877929688 C 20.78312492370605 460.0499877929688 20.6384162902832 460.1282348632812 20.55026626586914 460.2601013183594 C 20.4696159362793 460.3804931640625 20.45286560058594 460.5279541015625 20.50648498535156 460.6570434570312 C 20.84798622131348 461.4852600097656 21.34700584411621 462.2310180664062 21.98972511291504 462.8736572265625 C 22.62898445129395 463.5129089355469 23.37360000610352 464.010498046875 24.20294570922852 464.3526000976562 C 24.34801864624023 464.4098205566406 24.49394416809082 464.3873901367188 24.61087608337402 464.3100891113281 C 24.7403450012207 464.2236633300781 24.8176155090332 464.0791931152344 24.81758499145508 463.9234313964844 L 24.81758499145508 461.7466430664062 C 24.09813499450684 461.3583679199219 23.51032638549805 460.7704772949219 23.12116050720215 460.0499877929688 L 20.9378662109375 460.0499877929688 M 20.9378662109375 459.0499877929688 L 23.44646644592285 459.0499877929688 C 23.63681602478027 459.0499877929688 23.80814552307129 459.1620483398438 23.8842658996582 459.3356018066406 C 24.20794486999512 460.07373046875 24.79171562194824 460.6596374511719 25.53203582763672 460.9833374023438 C 25.70553588867188 461.0594482421875 25.81758499145508 461.2307739257812 25.81758499145508 461.421142578125 L 25.81758499145508 463.9234313964844 C 25.81769561767578 464.4128723144531 25.5732250213623 464.8699951171875 25.16610527038574 465.1417846679688 C 24.76452255249023 465.4073181152344 24.2672004699707 465.4561157226562 23.82715606689453 465.2793273925781 C 22.87118530273438 464.8858337402344 22.01664543151855 464.3147888183594 21.28262519836426 463.5807800292969 C 20.5485954284668 462.8468322753906 19.97537612915039 461.9922790527344 19.58199501037598 461.0382385253906 C 19.40011596679688 460.6004638671875 19.45299530029297 460.101318359375 19.71945571899414 459.7035522460938 C 19.9923152923584 459.29541015625 20.44922637939453 459.0499877929688 20.9378662109375 459.0499877929688 Z" stroke="none" fill="#006dea"/>
    </g>
    <g id="Path_1586" data-name="Path 1586" transform="translate(-98.787 -80.999)" fill="none" stroke-miterlimit="10">
      <path d="M20.93,132.911h2.5a.476.476,0,0,0,.437-.286,3.181,3.181,0,0,1,5.836,0,.476.476,0,0,0,.437.286h2.5a1.464,1.464,0,0,0,1.216-.651A1.436,1.436,0,0,0,34,130.916a7.8,7.8,0,0,0-14.416,0,1.424,1.424,0,0,0,.135,1.343,1.461,1.461,0,0,0,1.216.651Z" stroke="none"/>
      <path d="M 32.64381408691406 131.9105224609375 C 32.79748153686523 131.9105224609375 32.94185256958008 131.8322448730469 33.0274543762207 131.7049407958984 C 33.10916519165039 131.5821838378906 33.12532424926758 131.4298706054688 33.07126235961914 131.2988739013672 C 32.56052398681641 130.0667419433594 31.70767402648926 129.0183563232422 30.60383415222168 128.2663421630859 C 29.47641372680664 127.4961166381836 28.15582275390625 127.088996887207 26.78484344482422 127.088996887207 C 25.41388320922852 127.088996887207 24.09325408935547 127.4961242675781 22.96596336364746 128.2661895751953 C 21.86221313476562 129.0206604003906 21.01059341430664 130.0689239501953 20.50161361694336 131.3013763427734 C 20.44731330871582 131.4313507080078 20.46330261230469 131.5811157226562 20.54613304138184 131.7046051025391 C 20.6320629119873 131.8335723876953 20.7755241394043 131.9105529785156 20.93010330200195 131.9105224609375 L 23.10536193847656 131.9105224609375 C 23.83080101013184 130.5635681152344 25.24024391174316 129.7107543945312 26.78690338134766 129.7107543945312 C 28.33408737182617 129.7107543945312 29.74395561218262 130.5640716552734 30.46863555908203 131.9105224609375 L 32.64381408691406 131.9105224609375 M 32.64381408691406 132.9105224609375 L 30.14184379577637 132.9105224609375 C 29.95185279846191 132.9105224609375 29.78081321716309 132.7984771728516 29.7048225402832 132.6249389648438 C 29.19802284240723 131.4615783691406 28.0516529083252 130.7107543945312 26.78690338134766 130.7107543945312 C 25.52226257324219 130.7107543945312 24.37575340270996 131.4615783691406 23.86905288696289 132.6249389648438 C 23.7930736541748 132.7984771728516 23.6220531463623 132.9105224609375 23.43206405639648 132.9105224609375 L 20.93010330200195 132.9105224609375 C 20.4415340423584 132.9106292724609 19.98514366149902 132.6661682128906 19.71391296386719 132.2590484619141 C 19.44577407836914 131.8593139648438 19.3951530456543 131.3558044433594 19.5788631439209 130.9159698486328 C 20.16154289245605 129.5050354003906 21.13907432556152 128.3036651611328 22.40165328979492 127.4406356811523 C 23.69597434997559 126.5564575195312 25.21184349060059 126.088996887207 26.78484344482422 126.088996887207 C 28.35771369934082 126.088996887207 29.87371253967285 126.5564575195312 31.16793251037598 127.4406356811523 C 32.43473434448242 128.3036651611328 33.41020202636719 129.5050354003906 33.99504470825195 130.9159698486328 C 34.17659378051758 131.3558044433594 34.12597274780273 131.8593139648438 33.85989379882812 132.2590484619141 C 33.58544158935547 132.6672973632812 33.13152313232422 132.9105224609375 32.64381408691406 132.9105224609375 Z" stroke="none" fill="#006dea"/>
    </g>
  </g>
</svg>
