<svg xmlns="http://www.w3.org/2000/svg" width="20.5" height="20" viewBox="0 0 20.5 20">
  <g id="light" transform="translate(-70.059 -199.527)">
    <g id="Path_1579" data-name="Path 1579" transform="translate(-184.733 0)" fill="none" stroke-miterlimit="10">
      <path d="M266.8,219.527a2.609,2.609,0,0,1-1.438-.416,2.558,2.558,0,0,1-1.16-1.756,44.2,44.2,0,0,1,0-15.621,2.609,2.609,0,0,1,1.16-1.756,2.546,2.546,0,0,1,2.087-.37,10.218,10.218,0,0,1,0,19.873,3.07,3.07,0,0,1-.649.046Z" stroke="none"/>
      <path d="M 266.8046875 218.5266723632812 C 267.0162048339844 218.5266723632812 267.1197814941406 218.5256805419922 267.2417297363281 218.5029602050781 C 271.3936157226562 217.5000305175781 274.2916259765625 213.8188934326172 274.2916259765625 209.5437316894531 C 274.2916259765625 205.2713775634766 271.38330078125 201.5849609375 267.2191467285156 200.5790405273438 L 267.2121276855469 200.5773315429688 C 266.7615051269531 200.4649658203125 266.3047790527344 200.5447540283203 265.9350280761719 200.7998809814453 L 265.8898315429688 200.8292999267578 C 265.5345764160156 201.0471038818359 265.2796020507812 201.4439086914062 265.1907958984375 201.9155731201172 C 264.7403869628906 204.3399810791016 264.5120239257812 206.9064483642578 264.5120239257812 209.5437316894531 C 264.5120239257812 212.1809387207031 264.7403869628906 214.7473907470703 265.1907958984375 217.1717529296875 L 265.1998291015625 217.2297668457031 C 265.2650756835938 217.7491302490234 265.6804504394531 218.1104278564453 265.9276733398438 218.2823791503906 C 266.1682434082031 218.4399719238281 266.4792785644531 218.5266723632812 266.8046875 218.5266723632812 M 266.8046875 219.5266723632812 C 266.2945861816406 219.5266723632812 265.784423828125 219.387939453125 265.3671569824219 219.1105804443359 C 264.76416015625 218.6946563720703 264.3005065917969 218.0938415527344 264.2076110839844 217.3544006347656 C 263.7439575195312 214.858642578125 263.5120239257812 212.2242889404297 263.5120239257812 209.5437316894531 C 263.5120239257812 206.863037109375 263.7439575195312 204.2287139892578 264.2076110839844 201.7329254150391 C 264.3468627929688 200.9934997558594 264.76416015625 200.3464508056641 265.3671569824219 199.9767608642578 C 265.9700317382812 199.5608367919922 266.7120056152344 199.422119140625 267.4539489746094 199.6070098876953 C 272.0453491210938 200.7161254882812 275.2916259765625 204.7833709716797 275.2916259765625 209.5437316894531 C 275.2916259765625 214.2577972412109 272.0916748046875 218.3711395263672 267.4539489746094 219.4804382324219 C 267.2221984863281 219.5266723632812 267.03662109375 219.5266723632812 266.8046875 219.5266723632812 Z" stroke="none" fill="#fb931a"/>
    </g>
    <line id="Line_85" data-name="Line 85" x1="7.662" transform="translate(70.559 201.831)" fill="none" stroke="#fb931a" stroke-linecap="round" stroke-width="1"/>
    <line id="Line_88" data-name="Line 88" x1="7.662" transform="translate(70.559 217.087)" fill="none" stroke="#fb931a" stroke-linecap="round" stroke-width="1"/>
    <line id="Line_86" data-name="Line 86" x1="5.473" transform="translate(70.559 207.277)" fill="none" stroke="#fb931a" stroke-linecap="round" stroke-width="1"/>
    <line id="Line_87" data-name="Line 87" x1="5.473" transform="translate(70.559 211.641)" fill="none" stroke="#fb931a" stroke-linecap="round" stroke-width="1"/>
  </g>
</svg>
